<mxfile host="app.diagrams.net" modified="2023-10-28T07:11:19.156Z" agent="Mozilla/5.0 (Macintosh; Intel Mac OS X 10_15_7) AppleWebKit/537.36 (KHTML, like Gecko) Chrome/118.0.0.0 Safari/537.36" etag="NUTfHF_iwhOh9Oiq8NAh" version="22.0.8" type="github">
  <diagram name="第 1 页" id="sYq7CroNapSGq_4tXB4K">
    <mxGraphModel dx="1306" dy="826" grid="1" gridSize="10" guides="1" tooltips="1" connect="1" arrows="1" fold="1" page="1" pageScale="1" pageWidth="827" pageHeight="1169" math="0" shadow="0">
      <root>
        <mxCell id="0" />
        <mxCell id="1" parent="0" />
        <mxCell id="Vb4V3UIgdIW5qhZ8PHsk-17" style="rounded=0;orthogonalLoop=1;jettySize=auto;html=1;entryX=1;entryY=0;entryDx=0;entryDy=0;endArrow=none;endFill=0;" edge="1" parent="1" source="Vb4V3UIgdIW5qhZ8PHsk-2" target="Vb4V3UIgdIW5qhZ8PHsk-6">
          <mxGeometry relative="1" as="geometry" />
        </mxCell>
        <mxCell id="Vb4V3UIgdIW5qhZ8PHsk-18" style="rounded=0;orthogonalLoop=1;jettySize=auto;html=1;entryX=0;entryY=0;entryDx=0;entryDy=0;endArrow=none;endFill=0;" edge="1" parent="1" source="Vb4V3UIgdIW5qhZ8PHsk-2" target="Vb4V3UIgdIW5qhZ8PHsk-7">
          <mxGeometry relative="1" as="geometry" />
        </mxCell>
        <mxCell id="Vb4V3UIgdIW5qhZ8PHsk-2" value="1" style="ellipse;whiteSpace=wrap;html=1;aspect=fixed;" vertex="1" parent="1">
          <mxGeometry x="330" y="100" width="40" height="40" as="geometry" />
        </mxCell>
        <mxCell id="Vb4V3UIgdIW5qhZ8PHsk-6" value="2" style="ellipse;whiteSpace=wrap;html=1;aspect=fixed;" vertex="1" parent="1">
          <mxGeometry x="230" y="150" width="40" height="40" as="geometry" />
        </mxCell>
        <mxCell id="Vb4V3UIgdIW5qhZ8PHsk-7" value="3" style="ellipse;whiteSpace=wrap;html=1;aspect=fixed;" vertex="1" parent="1">
          <mxGeometry x="440" y="150" width="40" height="40" as="geometry" />
        </mxCell>
        <mxCell id="Vb4V3UIgdIW5qhZ8PHsk-8" value="4" style="ellipse;whiteSpace=wrap;html=1;aspect=fixed;" vertex="1" parent="1">
          <mxGeometry x="180" y="220" width="40" height="40" as="geometry" />
        </mxCell>
        <mxCell id="Vb4V3UIgdIW5qhZ8PHsk-9" value="5" style="ellipse;whiteSpace=wrap;html=1;aspect=fixed;" vertex="1" parent="1">
          <mxGeometry x="280" y="220" width="40" height="40" as="geometry" />
        </mxCell>
        <mxCell id="Vb4V3UIgdIW5qhZ8PHsk-11" value="6" style="ellipse;whiteSpace=wrap;html=1;aspect=fixed;" vertex="1" parent="1">
          <mxGeometry x="394" y="220" width="40" height="40" as="geometry" />
        </mxCell>
        <mxCell id="Vb4V3UIgdIW5qhZ8PHsk-12" value="7" style="ellipse;whiteSpace=wrap;html=1;aspect=fixed;" vertex="1" parent="1">
          <mxGeometry x="495" y="220" width="40" height="40" as="geometry" />
        </mxCell>
        <mxCell id="Vb4V3UIgdIW5qhZ8PHsk-13" value="8" style="ellipse;whiteSpace=wrap;html=1;aspect=fixed;" vertex="1" parent="1">
          <mxGeometry x="150" y="300" width="40" height="40" as="geometry" />
        </mxCell>
        <mxCell id="Vb4V3UIgdIW5qhZ8PHsk-14" value="9" style="ellipse;whiteSpace=wrap;html=1;aspect=fixed;" vertex="1" parent="1">
          <mxGeometry x="200" y="300" width="40" height="40" as="geometry" />
        </mxCell>
        <mxCell id="Vb4V3UIgdIW5qhZ8PHsk-20" value="" style="endArrow=none;html=1;rounded=0;exitX=1;exitY=0;exitDx=0;exitDy=0;entryX=0.5;entryY=1;entryDx=0;entryDy=0;" edge="1" parent="1" source="Vb4V3UIgdIW5qhZ8PHsk-8" target="Vb4V3UIgdIW5qhZ8PHsk-6">
          <mxGeometry width="50" height="50" relative="1" as="geometry">
            <mxPoint x="390" y="340" as="sourcePoint" />
            <mxPoint x="440" y="290" as="targetPoint" />
          </mxGeometry>
        </mxCell>
        <mxCell id="Vb4V3UIgdIW5qhZ8PHsk-23" value="" style="endArrow=none;html=1;rounded=0;entryX=0.5;entryY=1;entryDx=0;entryDy=0;" edge="1" parent="1" source="Vb4V3UIgdIW5qhZ8PHsk-9" target="Vb4V3UIgdIW5qhZ8PHsk-6">
          <mxGeometry width="50" height="50" relative="1" as="geometry">
            <mxPoint x="244" y="236" as="sourcePoint" />
            <mxPoint x="270" y="210" as="targetPoint" />
          </mxGeometry>
        </mxCell>
        <mxCell id="Vb4V3UIgdIW5qhZ8PHsk-24" value="" style="endArrow=none;html=1;rounded=0;exitX=1;exitY=0;exitDx=0;exitDy=0;entryX=0.5;entryY=1;entryDx=0;entryDy=0;" edge="1" parent="1" source="Vb4V3UIgdIW5qhZ8PHsk-11" target="Vb4V3UIgdIW5qhZ8PHsk-7">
          <mxGeometry width="50" height="50" relative="1" as="geometry">
            <mxPoint x="254" y="246" as="sourcePoint" />
            <mxPoint x="280" y="220" as="targetPoint" />
          </mxGeometry>
        </mxCell>
        <mxCell id="Vb4V3UIgdIW5qhZ8PHsk-25" value="" style="endArrow=none;html=1;rounded=0;entryX=0.5;entryY=1;entryDx=0;entryDy=0;" edge="1" parent="1" source="Vb4V3UIgdIW5qhZ8PHsk-12" target="Vb4V3UIgdIW5qhZ8PHsk-7">
          <mxGeometry width="50" height="50" relative="1" as="geometry">
            <mxPoint x="404" y="236" as="sourcePoint" />
            <mxPoint x="430" y="210" as="targetPoint" />
          </mxGeometry>
        </mxCell>
        <mxCell id="Vb4V3UIgdIW5qhZ8PHsk-26" value="" style="endArrow=none;html=1;rounded=0;entryX=0.5;entryY=1;entryDx=0;entryDy=0;" edge="1" parent="1" source="Vb4V3UIgdIW5qhZ8PHsk-13" target="Vb4V3UIgdIW5qhZ8PHsk-8">
          <mxGeometry width="50" height="50" relative="1" as="geometry">
            <mxPoint x="390" y="340" as="sourcePoint" />
            <mxPoint x="440" y="290" as="targetPoint" />
          </mxGeometry>
        </mxCell>
        <mxCell id="Vb4V3UIgdIW5qhZ8PHsk-27" value="" style="endArrow=none;html=1;rounded=0;exitX=0.5;exitY=0;exitDx=0;exitDy=0;entryX=0.5;entryY=1;entryDx=0;entryDy=0;" edge="1" parent="1" source="Vb4V3UIgdIW5qhZ8PHsk-14" target="Vb4V3UIgdIW5qhZ8PHsk-8">
          <mxGeometry width="50" height="50" relative="1" as="geometry">
            <mxPoint x="414" y="246" as="sourcePoint" />
            <mxPoint x="440" y="220" as="targetPoint" />
          </mxGeometry>
        </mxCell>
        <mxCell id="Vb4V3UIgdIW5qhZ8PHsk-29" value="满二叉树" style="text;html=1;strokeColor=none;fillColor=none;align=center;verticalAlign=middle;whiteSpace=wrap;rounded=0;" vertex="1" parent="1">
          <mxGeometry x="320" y="60" width="60" height="30" as="geometry" />
        </mxCell>
        <mxCell id="Vb4V3UIgdIW5qhZ8PHsk-32" value="10" style="ellipse;whiteSpace=wrap;html=1;aspect=fixed;" vertex="1" parent="1">
          <mxGeometry x="260" y="300" width="40" height="40" as="geometry" />
        </mxCell>
        <mxCell id="Vb4V3UIgdIW5qhZ8PHsk-33" value="11" style="ellipse;whiteSpace=wrap;html=1;aspect=fixed;" vertex="1" parent="1">
          <mxGeometry x="310" y="300" width="40" height="40" as="geometry" />
        </mxCell>
        <mxCell id="Vb4V3UIgdIW5qhZ8PHsk-34" value="12" style="ellipse;whiteSpace=wrap;html=1;aspect=fixed;" vertex="1" parent="1">
          <mxGeometry x="369" y="300" width="40" height="40" as="geometry" />
        </mxCell>
        <mxCell id="Vb4V3UIgdIW5qhZ8PHsk-35" value="13" style="ellipse;whiteSpace=wrap;html=1;aspect=fixed;" vertex="1" parent="1">
          <mxGeometry x="419" y="300" width="40" height="40" as="geometry" />
        </mxCell>
        <mxCell id="Vb4V3UIgdIW5qhZ8PHsk-36" value="14" style="ellipse;whiteSpace=wrap;html=1;aspect=fixed;" vertex="1" parent="1">
          <mxGeometry x="470" y="300" width="40" height="40" as="geometry" />
        </mxCell>
        <mxCell id="Vb4V3UIgdIW5qhZ8PHsk-37" value="15" style="ellipse;whiteSpace=wrap;html=1;aspect=fixed;" vertex="1" parent="1">
          <mxGeometry x="520" y="300" width="40" height="40" as="geometry" />
        </mxCell>
        <mxCell id="Vb4V3UIgdIW5qhZ8PHsk-38" value="" style="endArrow=none;html=1;rounded=0;entryX=0.5;entryY=1;entryDx=0;entryDy=0;exitX=0.5;exitY=0;exitDx=0;exitDy=0;" edge="1" parent="1" source="Vb4V3UIgdIW5qhZ8PHsk-32" target="Vb4V3UIgdIW5qhZ8PHsk-9">
          <mxGeometry width="50" height="50" relative="1" as="geometry">
            <mxPoint x="390" y="330" as="sourcePoint" />
            <mxPoint x="440" y="280" as="targetPoint" />
          </mxGeometry>
        </mxCell>
        <mxCell id="Vb4V3UIgdIW5qhZ8PHsk-39" value="" style="endArrow=none;html=1;rounded=0;entryX=0.5;entryY=1;entryDx=0;entryDy=0;exitX=0.5;exitY=0;exitDx=0;exitDy=0;" edge="1" parent="1" source="Vb4V3UIgdIW5qhZ8PHsk-33" target="Vb4V3UIgdIW5qhZ8PHsk-9">
          <mxGeometry width="50" height="50" relative="1" as="geometry">
            <mxPoint x="390" y="330" as="sourcePoint" />
            <mxPoint x="440" y="280" as="targetPoint" />
          </mxGeometry>
        </mxCell>
        <mxCell id="Vb4V3UIgdIW5qhZ8PHsk-40" value="" style="endArrow=none;html=1;rounded=0;entryX=0.5;entryY=1;entryDx=0;entryDy=0;exitX=0.5;exitY=0;exitDx=0;exitDy=0;" edge="1" parent="1" source="Vb4V3UIgdIW5qhZ8PHsk-34" target="Vb4V3UIgdIW5qhZ8PHsk-11">
          <mxGeometry width="50" height="50" relative="1" as="geometry">
            <mxPoint x="390" y="330" as="sourcePoint" />
            <mxPoint x="440" y="280" as="targetPoint" />
          </mxGeometry>
        </mxCell>
        <mxCell id="Vb4V3UIgdIW5qhZ8PHsk-41" value="" style="endArrow=none;html=1;rounded=0;entryX=0.5;entryY=1;entryDx=0;entryDy=0;exitX=0.5;exitY=0;exitDx=0;exitDy=0;" edge="1" parent="1" source="Vb4V3UIgdIW5qhZ8PHsk-35" target="Vb4V3UIgdIW5qhZ8PHsk-11">
          <mxGeometry width="50" height="50" relative="1" as="geometry">
            <mxPoint x="390" y="330" as="sourcePoint" />
            <mxPoint x="440" y="280" as="targetPoint" />
          </mxGeometry>
        </mxCell>
        <mxCell id="Vb4V3UIgdIW5qhZ8PHsk-42" value="" style="endArrow=none;html=1;rounded=0;entryX=0.5;entryY=1;entryDx=0;entryDy=0;" edge="1" parent="1" source="Vb4V3UIgdIW5qhZ8PHsk-36" target="Vb4V3UIgdIW5qhZ8PHsk-12">
          <mxGeometry width="50" height="50" relative="1" as="geometry">
            <mxPoint x="390" y="330" as="sourcePoint" />
            <mxPoint x="440" y="280" as="targetPoint" />
          </mxGeometry>
        </mxCell>
        <mxCell id="Vb4V3UIgdIW5qhZ8PHsk-43" value="" style="endArrow=none;html=1;rounded=0;entryX=0.5;entryY=1;entryDx=0;entryDy=0;exitX=0.5;exitY=0;exitDx=0;exitDy=0;" edge="1" parent="1" source="Vb4V3UIgdIW5qhZ8PHsk-37" target="Vb4V3UIgdIW5qhZ8PHsk-12">
          <mxGeometry width="50" height="50" relative="1" as="geometry">
            <mxPoint x="390" y="330" as="sourcePoint" />
            <mxPoint x="440" y="280" as="targetPoint" />
          </mxGeometry>
        </mxCell>
        <mxCell id="Vb4V3UIgdIW5qhZ8PHsk-44" style="rounded=0;orthogonalLoop=1;jettySize=auto;html=1;entryX=1;entryY=0;entryDx=0;entryDy=0;endArrow=none;endFill=0;" edge="1" parent="1" source="Vb4V3UIgdIW5qhZ8PHsk-46" target="Vb4V3UIgdIW5qhZ8PHsk-47">
          <mxGeometry relative="1" as="geometry" />
        </mxCell>
        <mxCell id="Vb4V3UIgdIW5qhZ8PHsk-45" style="rounded=0;orthogonalLoop=1;jettySize=auto;html=1;entryX=0;entryY=0;entryDx=0;entryDy=0;endArrow=none;endFill=0;" edge="1" parent="1" source="Vb4V3UIgdIW5qhZ8PHsk-46" target="Vb4V3UIgdIW5qhZ8PHsk-48">
          <mxGeometry relative="1" as="geometry" />
        </mxCell>
        <mxCell id="Vb4V3UIgdIW5qhZ8PHsk-46" value="1" style="ellipse;whiteSpace=wrap;html=1;aspect=fixed;" vertex="1" parent="1">
          <mxGeometry x="340" y="470" width="40" height="40" as="geometry" />
        </mxCell>
        <mxCell id="Vb4V3UIgdIW5qhZ8PHsk-47" value="2" style="ellipse;whiteSpace=wrap;html=1;aspect=fixed;" vertex="1" parent="1">
          <mxGeometry x="240" y="520" width="40" height="40" as="geometry" />
        </mxCell>
        <mxCell id="Vb4V3UIgdIW5qhZ8PHsk-48" value="3" style="ellipse;whiteSpace=wrap;html=1;aspect=fixed;" vertex="1" parent="1">
          <mxGeometry x="450" y="520" width="40" height="40" as="geometry" />
        </mxCell>
        <mxCell id="Vb4V3UIgdIW5qhZ8PHsk-49" value="4" style="ellipse;whiteSpace=wrap;html=1;aspect=fixed;" vertex="1" parent="1">
          <mxGeometry x="190" y="590" width="40" height="40" as="geometry" />
        </mxCell>
        <mxCell id="Vb4V3UIgdIW5qhZ8PHsk-50" value="5" style="ellipse;whiteSpace=wrap;html=1;aspect=fixed;" vertex="1" parent="1">
          <mxGeometry x="290" y="590" width="40" height="40" as="geometry" />
        </mxCell>
        <mxCell id="Vb4V3UIgdIW5qhZ8PHsk-51" value="6" style="ellipse;whiteSpace=wrap;html=1;aspect=fixed;" vertex="1" parent="1">
          <mxGeometry x="404" y="590" width="40" height="40" as="geometry" />
        </mxCell>
        <mxCell id="Vb4V3UIgdIW5qhZ8PHsk-52" value="7" style="ellipse;whiteSpace=wrap;html=1;aspect=fixed;" vertex="1" parent="1">
          <mxGeometry x="505" y="590" width="40" height="40" as="geometry" />
        </mxCell>
        <mxCell id="Vb4V3UIgdIW5qhZ8PHsk-53" value="8" style="ellipse;whiteSpace=wrap;html=1;aspect=fixed;" vertex="1" parent="1">
          <mxGeometry x="160" y="670" width="40" height="40" as="geometry" />
        </mxCell>
        <mxCell id="Vb4V3UIgdIW5qhZ8PHsk-54" value="9" style="ellipse;whiteSpace=wrap;html=1;aspect=fixed;" vertex="1" parent="1">
          <mxGeometry x="210" y="670" width="40" height="40" as="geometry" />
        </mxCell>
        <mxCell id="Vb4V3UIgdIW5qhZ8PHsk-55" value="" style="endArrow=none;html=1;rounded=0;exitX=1;exitY=0;exitDx=0;exitDy=0;entryX=0.5;entryY=1;entryDx=0;entryDy=0;" edge="1" parent="1" source="Vb4V3UIgdIW5qhZ8PHsk-49" target="Vb4V3UIgdIW5qhZ8PHsk-47">
          <mxGeometry width="50" height="50" relative="1" as="geometry">
            <mxPoint x="400" y="710" as="sourcePoint" />
            <mxPoint x="450" y="660" as="targetPoint" />
          </mxGeometry>
        </mxCell>
        <mxCell id="Vb4V3UIgdIW5qhZ8PHsk-56" value="" style="endArrow=none;html=1;rounded=0;entryX=0.5;entryY=1;entryDx=0;entryDy=0;" edge="1" parent="1" source="Vb4V3UIgdIW5qhZ8PHsk-50" target="Vb4V3UIgdIW5qhZ8PHsk-47">
          <mxGeometry width="50" height="50" relative="1" as="geometry">
            <mxPoint x="254" y="606" as="sourcePoint" />
            <mxPoint x="280" y="580" as="targetPoint" />
          </mxGeometry>
        </mxCell>
        <mxCell id="Vb4V3UIgdIW5qhZ8PHsk-57" value="" style="endArrow=none;html=1;rounded=0;exitX=1;exitY=0;exitDx=0;exitDy=0;entryX=0.5;entryY=1;entryDx=0;entryDy=0;" edge="1" parent="1" source="Vb4V3UIgdIW5qhZ8PHsk-51" target="Vb4V3UIgdIW5qhZ8PHsk-48">
          <mxGeometry width="50" height="50" relative="1" as="geometry">
            <mxPoint x="264" y="616" as="sourcePoint" />
            <mxPoint x="290" y="590" as="targetPoint" />
          </mxGeometry>
        </mxCell>
        <mxCell id="Vb4V3UIgdIW5qhZ8PHsk-58" value="" style="endArrow=none;html=1;rounded=0;entryX=0.5;entryY=1;entryDx=0;entryDy=0;" edge="1" parent="1" source="Vb4V3UIgdIW5qhZ8PHsk-52" target="Vb4V3UIgdIW5qhZ8PHsk-48">
          <mxGeometry width="50" height="50" relative="1" as="geometry">
            <mxPoint x="414" y="606" as="sourcePoint" />
            <mxPoint x="440" y="580" as="targetPoint" />
          </mxGeometry>
        </mxCell>
        <mxCell id="Vb4V3UIgdIW5qhZ8PHsk-59" value="" style="endArrow=none;html=1;rounded=0;entryX=0.5;entryY=1;entryDx=0;entryDy=0;" edge="1" parent="1" source="Vb4V3UIgdIW5qhZ8PHsk-53" target="Vb4V3UIgdIW5qhZ8PHsk-49">
          <mxGeometry width="50" height="50" relative="1" as="geometry">
            <mxPoint x="400" y="710" as="sourcePoint" />
            <mxPoint x="450" y="660" as="targetPoint" />
          </mxGeometry>
        </mxCell>
        <mxCell id="Vb4V3UIgdIW5qhZ8PHsk-60" value="" style="endArrow=none;html=1;rounded=0;exitX=0.5;exitY=0;exitDx=0;exitDy=0;entryX=0.5;entryY=1;entryDx=0;entryDy=0;" edge="1" parent="1" source="Vb4V3UIgdIW5qhZ8PHsk-54" target="Vb4V3UIgdIW5qhZ8PHsk-49">
          <mxGeometry width="50" height="50" relative="1" as="geometry">
            <mxPoint x="424" y="616" as="sourcePoint" />
            <mxPoint x="450" y="590" as="targetPoint" />
          </mxGeometry>
        </mxCell>
        <mxCell id="Vb4V3UIgdIW5qhZ8PHsk-61" value="完全二叉树" style="text;html=1;strokeColor=none;fillColor=none;align=center;verticalAlign=middle;whiteSpace=wrap;rounded=0;" vertex="1" parent="1">
          <mxGeometry x="330" y="430" width="70" height="30" as="geometry" />
        </mxCell>
        <mxCell id="Vb4V3UIgdIW5qhZ8PHsk-62" value="10" style="ellipse;whiteSpace=wrap;html=1;aspect=fixed;" vertex="1" parent="1">
          <mxGeometry x="270" y="670" width="40" height="40" as="geometry" />
        </mxCell>
        <mxCell id="Vb4V3UIgdIW5qhZ8PHsk-63" value="11" style="ellipse;whiteSpace=wrap;html=1;aspect=fixed;" vertex="1" parent="1">
          <mxGeometry x="320" y="670" width="40" height="40" as="geometry" />
        </mxCell>
        <mxCell id="Vb4V3UIgdIW5qhZ8PHsk-64" value="12" style="ellipse;whiteSpace=wrap;html=1;aspect=fixed;" vertex="1" parent="1">
          <mxGeometry x="379" y="670" width="40" height="40" as="geometry" />
        </mxCell>
        <mxCell id="Vb4V3UIgdIW5qhZ8PHsk-68" value="" style="endArrow=none;html=1;rounded=0;entryX=0.5;entryY=1;entryDx=0;entryDy=0;exitX=0.5;exitY=0;exitDx=0;exitDy=0;" edge="1" parent="1" source="Vb4V3UIgdIW5qhZ8PHsk-62" target="Vb4V3UIgdIW5qhZ8PHsk-50">
          <mxGeometry width="50" height="50" relative="1" as="geometry">
            <mxPoint x="400" y="700" as="sourcePoint" />
            <mxPoint x="450" y="650" as="targetPoint" />
          </mxGeometry>
        </mxCell>
        <mxCell id="Vb4V3UIgdIW5qhZ8PHsk-69" value="" style="endArrow=none;html=1;rounded=0;entryX=0.5;entryY=1;entryDx=0;entryDy=0;exitX=0.5;exitY=0;exitDx=0;exitDy=0;" edge="1" parent="1" source="Vb4V3UIgdIW5qhZ8PHsk-63" target="Vb4V3UIgdIW5qhZ8PHsk-50">
          <mxGeometry width="50" height="50" relative="1" as="geometry">
            <mxPoint x="400" y="700" as="sourcePoint" />
            <mxPoint x="450" y="650" as="targetPoint" />
          </mxGeometry>
        </mxCell>
        <mxCell id="Vb4V3UIgdIW5qhZ8PHsk-70" value="" style="endArrow=none;html=1;rounded=0;entryX=0.5;entryY=1;entryDx=0;entryDy=0;exitX=0.5;exitY=0;exitDx=0;exitDy=0;" edge="1" parent="1" source="Vb4V3UIgdIW5qhZ8PHsk-64" target="Vb4V3UIgdIW5qhZ8PHsk-51">
          <mxGeometry width="50" height="50" relative="1" as="geometry">
            <mxPoint x="400" y="700" as="sourcePoint" />
            <mxPoint x="450" y="650" as="targetPoint" />
          </mxGeometry>
        </mxCell>
        <mxCell id="Vb4V3UIgdIW5qhZ8PHsk-74" style="rounded=0;orthogonalLoop=1;jettySize=auto;html=1;entryX=1;entryY=0;entryDx=0;entryDy=0;endArrow=none;endFill=0;" edge="1" parent="1" source="Vb4V3UIgdIW5qhZ8PHsk-76" target="Vb4V3UIgdIW5qhZ8PHsk-77">
          <mxGeometry relative="1" as="geometry" />
        </mxCell>
        <mxCell id="Vb4V3UIgdIW5qhZ8PHsk-75" style="rounded=0;orthogonalLoop=1;jettySize=auto;html=1;entryX=0;entryY=0;entryDx=0;entryDy=0;endArrow=none;endFill=0;" edge="1" parent="1" source="Vb4V3UIgdIW5qhZ8PHsk-76" target="Vb4V3UIgdIW5qhZ8PHsk-78">
          <mxGeometry relative="1" as="geometry" />
        </mxCell>
        <mxCell id="Vb4V3UIgdIW5qhZ8PHsk-76" value="1" style="ellipse;whiteSpace=wrap;html=1;aspect=fixed;" vertex="1" parent="1">
          <mxGeometry x="340" y="840" width="40" height="40" as="geometry" />
        </mxCell>
        <mxCell id="Vb4V3UIgdIW5qhZ8PHsk-77" value="2" style="ellipse;whiteSpace=wrap;html=1;aspect=fixed;" vertex="1" parent="1">
          <mxGeometry x="240" y="890" width="40" height="40" as="geometry" />
        </mxCell>
        <mxCell id="Vb4V3UIgdIW5qhZ8PHsk-78" value="3" style="ellipse;whiteSpace=wrap;html=1;aspect=fixed;" vertex="1" parent="1">
          <mxGeometry x="450" y="890" width="40" height="40" as="geometry" />
        </mxCell>
        <mxCell id="Vb4V3UIgdIW5qhZ8PHsk-79" value="4" style="ellipse;whiteSpace=wrap;html=1;aspect=fixed;" vertex="1" parent="1">
          <mxGeometry x="190" y="960" width="40" height="40" as="geometry" />
        </mxCell>
        <mxCell id="Vb4V3UIgdIW5qhZ8PHsk-80" value="5" style="ellipse;whiteSpace=wrap;html=1;aspect=fixed;" vertex="1" parent="1">
          <mxGeometry x="290" y="960" width="40" height="40" as="geometry" />
        </mxCell>
        <mxCell id="Vb4V3UIgdIW5qhZ8PHsk-82" value="7" style="ellipse;whiteSpace=wrap;html=1;aspect=fixed;" vertex="1" parent="1">
          <mxGeometry x="505" y="960" width="40" height="40" as="geometry" />
        </mxCell>
        <mxCell id="Vb4V3UIgdIW5qhZ8PHsk-83" value="8" style="ellipse;whiteSpace=wrap;html=1;aspect=fixed;" vertex="1" parent="1">
          <mxGeometry x="160" y="1040" width="40" height="40" as="geometry" />
        </mxCell>
        <mxCell id="Vb4V3UIgdIW5qhZ8PHsk-84" value="9" style="ellipse;whiteSpace=wrap;html=1;aspect=fixed;" vertex="1" parent="1">
          <mxGeometry x="210" y="1040" width="40" height="40" as="geometry" />
        </mxCell>
        <mxCell id="Vb4V3UIgdIW5qhZ8PHsk-85" value="" style="endArrow=none;html=1;rounded=0;exitX=1;exitY=0;exitDx=0;exitDy=0;entryX=0.5;entryY=1;entryDx=0;entryDy=0;" edge="1" parent="1" source="Vb4V3UIgdIW5qhZ8PHsk-79" target="Vb4V3UIgdIW5qhZ8PHsk-77">
          <mxGeometry width="50" height="50" relative="1" as="geometry">
            <mxPoint x="400" y="1080" as="sourcePoint" />
            <mxPoint x="450" y="1030" as="targetPoint" />
          </mxGeometry>
        </mxCell>
        <mxCell id="Vb4V3UIgdIW5qhZ8PHsk-86" value="" style="endArrow=none;html=1;rounded=0;entryX=0.5;entryY=1;entryDx=0;entryDy=0;" edge="1" parent="1" source="Vb4V3UIgdIW5qhZ8PHsk-80" target="Vb4V3UIgdIW5qhZ8PHsk-77">
          <mxGeometry width="50" height="50" relative="1" as="geometry">
            <mxPoint x="254" y="976" as="sourcePoint" />
            <mxPoint x="280" y="950" as="targetPoint" />
          </mxGeometry>
        </mxCell>
        <mxCell id="Vb4V3UIgdIW5qhZ8PHsk-88" value="" style="endArrow=none;html=1;rounded=0;entryX=0.5;entryY=1;entryDx=0;entryDy=0;" edge="1" parent="1" source="Vb4V3UIgdIW5qhZ8PHsk-82" target="Vb4V3UIgdIW5qhZ8PHsk-78">
          <mxGeometry width="50" height="50" relative="1" as="geometry">
            <mxPoint x="414" y="976" as="sourcePoint" />
            <mxPoint x="440" y="950" as="targetPoint" />
          </mxGeometry>
        </mxCell>
        <mxCell id="Vb4V3UIgdIW5qhZ8PHsk-89" value="" style="endArrow=none;html=1;rounded=0;entryX=0.5;entryY=1;entryDx=0;entryDy=0;" edge="1" parent="1" source="Vb4V3UIgdIW5qhZ8PHsk-83" target="Vb4V3UIgdIW5qhZ8PHsk-79">
          <mxGeometry width="50" height="50" relative="1" as="geometry">
            <mxPoint x="400" y="1080" as="sourcePoint" />
            <mxPoint x="450" y="1030" as="targetPoint" />
          </mxGeometry>
        </mxCell>
        <mxCell id="Vb4V3UIgdIW5qhZ8PHsk-90" value="" style="endArrow=none;html=1;rounded=0;exitX=0.5;exitY=0;exitDx=0;exitDy=0;entryX=0.5;entryY=1;entryDx=0;entryDy=0;" edge="1" parent="1" source="Vb4V3UIgdIW5qhZ8PHsk-84" target="Vb4V3UIgdIW5qhZ8PHsk-79">
          <mxGeometry width="50" height="50" relative="1" as="geometry">
            <mxPoint x="424" y="986" as="sourcePoint" />
            <mxPoint x="450" y="960" as="targetPoint" />
          </mxGeometry>
        </mxCell>
        <mxCell id="Vb4V3UIgdIW5qhZ8PHsk-91" value="非完全二叉树" style="text;html=1;strokeColor=none;fillColor=none;align=center;verticalAlign=middle;whiteSpace=wrap;rounded=0;" vertex="1" parent="1">
          <mxGeometry x="330" y="800" width="80" height="30" as="geometry" />
        </mxCell>
        <mxCell id="Vb4V3UIgdIW5qhZ8PHsk-92" value="10" style="ellipse;whiteSpace=wrap;html=1;aspect=fixed;" vertex="1" parent="1">
          <mxGeometry x="270" y="1040" width="40" height="40" as="geometry" />
        </mxCell>
        <mxCell id="Vb4V3UIgdIW5qhZ8PHsk-93" value="11" style="ellipse;whiteSpace=wrap;html=1;aspect=fixed;" vertex="1" parent="1">
          <mxGeometry x="320" y="1040" width="40" height="40" as="geometry" />
        </mxCell>
        <mxCell id="Vb4V3UIgdIW5qhZ8PHsk-95" value="" style="endArrow=none;html=1;rounded=0;entryX=0.5;entryY=1;entryDx=0;entryDy=0;exitX=0.5;exitY=0;exitDx=0;exitDy=0;" edge="1" parent="1" source="Vb4V3UIgdIW5qhZ8PHsk-92" target="Vb4V3UIgdIW5qhZ8PHsk-80">
          <mxGeometry width="50" height="50" relative="1" as="geometry">
            <mxPoint x="400" y="1070" as="sourcePoint" />
            <mxPoint x="450" y="1020" as="targetPoint" />
          </mxGeometry>
        </mxCell>
        <mxCell id="Vb4V3UIgdIW5qhZ8PHsk-96" value="" style="endArrow=none;html=1;rounded=0;entryX=0.5;entryY=1;entryDx=0;entryDy=0;exitX=0.5;exitY=0;exitDx=0;exitDy=0;" edge="1" parent="1" source="Vb4V3UIgdIW5qhZ8PHsk-93" target="Vb4V3UIgdIW5qhZ8PHsk-80">
          <mxGeometry width="50" height="50" relative="1" as="geometry">
            <mxPoint x="400" y="1070" as="sourcePoint" />
            <mxPoint x="450" y="1020" as="targetPoint" />
          </mxGeometry>
        </mxCell>
      </root>
    </mxGraphModel>
  </diagram>
</mxfile>
